<svg xmlns="http://www.w3.org/2000/svg" width="1em" height="1em" viewBox="0 0 24 24"><g fill="none"><path fill="url(#fluentColorBookOpenLightbulb240)" d="M2 6a2 2 0 0 1 2-2h6c.768 0 2 1 2 2l1 6.5l-1 6.736A3 3 0 0 1 10 20H4a2 2 0 0 1-2-2z"/><path fill="url(#fluentColorBookOpenLightbulb241)" d="M20 4a2 2 0 0 1 2 2v12h-3v2h-5c-.768 0-1.47-.289-2-.764L11 12.5L12 6c0-1 1.232-2 2-2z"/><path fill="url(#fluentColorBookOpenLightbulb242)" d="M3.5 5a1 1 0 0 1 1-1h6A1.5 1.5 0 0 1 12 5.5l.555 5.5L12 16.5a2 2 0 0 1-2 2H4.5a1 1 0 0 1-1-1z"/><path fill="url(#fluentColorBookOpenLightbulb243)" d="M20.5 5a1 1 0 0 0-1-1h-6A1.5 1.5 0 0 0 12 5.5v11a2 2 0 0 0 2 2h5.5a1 1 0 0 0 1-1z"/><path fill="url(#fluentColorBookOpenLightbulb246)" d="M20.5 5a1 1 0 0 0-1-1h-6A1.5 1.5 0 0 0 12 5.5v11a2 2 0 0 0 2 2h5.5a1 1 0 0 0 1-1z"/><path fill="url(#fluentColorBookOpenLightbulb247)" d="m17.1 21l.159.794A1.5 1.5 0 0 0 18.729 23h.541a1.5 1.5 0 0 0 1.471-1.206L20.9 21l-1.9-.5z"/><path fill="url(#fluentColorBookOpenLightbulb244)" d="m17.1 21l.159.794A1.5 1.5 0 0 0 18.729 23h.541a1.5 1.5 0 0 0 1.471-1.206L20.9 21l-1.9-.5z"/><path fill="url(#fluentColorBookOpenLightbulb248)" d="M23 16a4 4 0 0 1-1.763 3.317L21.1 20l-2.1.5l-2.1-.5l-.137-.683A4 4 0 1 1 23 16"/><path fill="url(#fluentColorBookOpenLightbulb245)" d="M20.9 21h-3.8l-.2-1h4.2z"/><defs><linearGradient id="fluentColorBookOpenLightbulb240" x1="3.875" x2="7.289" y1="4.571" y2="24.157" gradientUnits="userSpaceOnUse"><stop stop-color="#20ac9d"/><stop offset=".908" stop-color="#2052cb"/></linearGradient><linearGradient id="fluentColorBookOpenLightbulb241" x1="20.125" x2="16.711" y1="4.571" y2="24.157" gradientUnits="userSpaceOnUse"><stop stop-color="#20ac9d"/><stop offset=".908" stop-color="#2052cb"/></linearGradient><linearGradient id="fluentColorBookOpenLightbulb242" x1="2.286" x2="27.658" y1="3.442" y2="15.213" gradientUnits="userSpaceOnUse"><stop stop-color="#b6efff"/><stop offset=".851" stop-color="#58aafe"/></linearGradient><linearGradient id="fluentColorBookOpenLightbulb243" x1="19.969" x2=".231" y1="4.906" y2="9.077" gradientUnits="userSpaceOnUse"><stop offset=".123" stop-color="#9deaff"/><stop offset=".616" stop-color="#4894fe"/></linearGradient><linearGradient id="fluentColorBookOpenLightbulb244" x1="19" x2="19" y1="20.5" y2="23" gradientUnits="userSpaceOnUse"><stop stop-color="#d34719"/><stop offset="1" stop-color="#d34719" stop-opacity="0"/></linearGradient><linearGradient id="fluentColorBookOpenLightbulb245" x1="18.668" x2="19.672" y1="20.397" y2="22.084" gradientUnits="userSpaceOnUse"><stop stop-color="#ffc7a3"/><stop offset="1" stop-color="#ff9c70"/></linearGradient><radialGradient id="fluentColorBookOpenLightbulb246" cx="0" cy="0" r="1" gradientTransform="rotate(-133.363 13.737 5.047)scale(12.3794)" gradientUnits="userSpaceOnUse"><stop offset=".251" stop-color="#2063c3"/><stop offset=".714" stop-color="#8ad6ff" stop-opacity="0"/></radialGradient><radialGradient id="fluentColorBookOpenLightbulb247" cx="0" cy="0" r="1" gradientTransform="matrix(2.34887 9.81742 -12.75229 3.05106 16.618 12.694)" gradientUnits="userSpaceOnUse"><stop stop-color="#ffe06b"/><stop offset=".376" stop-color="#ffa43d"/><stop offset="1" stop-color="#e67505"/></radialGradient><radialGradient id="fluentColorBookOpenLightbulb248" cx="0" cy="0" r="1" gradientTransform="rotate(73.353 -.565 17.468)scale(9.18138 14.4644)" gradientUnits="userSpaceOnUse"><stop stop-color="#ffe06b"/><stop offset=".376" stop-color="#ffa43d"/><stop offset="1" stop-color="#e67505"/></radialGradient></defs></g></svg>