<svg xmlns="http://www.w3.org/2000/svg" width="1em" height="1em" viewBox="0 0 24 24"><g fill="none"><path fill="url(#fluentColorOptions244)" d="M22 16.75a.75.75 0 0 0-.75-.75H2.75l-.102.007A.75.75 0 0 0 2.75 17.5h18.5l.102-.007A.75.75 0 0 0 22 16.75"/><path fill="url(#fluentColorOptions240)" d="M22 16.75a.75.75 0 0 0-.75-.75H2.75l-.102.007A.75.75 0 0 0 2.75 17.5h18.5l.102-.007A.75.75 0 0 0 22 16.75"/><path fill="url(#fluentColorOptions241)" d="M22 16.75a.75.75 0 0 0-.75-.75H2.75l-.102.007A.75.75 0 0 0 2.75 17.5h18.5l.102-.007A.75.75 0 0 0 22 16.75"/><path fill="url(#fluentColorOptions245)" d="M22 7.25a.75.75 0 0 0-.75-.75H2.75l-.102.007A.75.75 0 0 0 2.75 8h18.5l.102-.007A.75.75 0 0 0 22 7.25"/><path fill="url(#fluentColorOptions242)" d="M22 7.25a.75.75 0 0 0-.75-.75H2.75l-.102.007A.75.75 0 0 0 2.75 8h18.5l.102-.007A.75.75 0 0 0 22 7.25"/><path fill="url(#fluentColorOptions243)" d="M22 7.25a.75.75 0 0 0-.75-.75H2.75l-.102.007A.75.75 0 0 0 2.75 8h18.5l.102-.007A.75.75 0 0 0 22 7.25"/><path fill="url(#fluentColorOptions246)" d="M12 16.75a3.25 3.25 0 1 1-6.5 0a3.25 3.25 0 0 1 6.5 0"/><path fill="url(#fluentColorOptions247)" d="M18.5 7.25a3.25 3.25 0 1 1-6.5 0a3.25 3.25 0 0 1 6.5 0"/><defs><radialGradient id="fluentColorOptions240" cx="0" cy="0" r="1" gradientTransform="matrix(4.66666 -.1875 .12027 2.9935 15.333 7.188)" gradientUnits="userSpaceOnUse"><stop offset=".549" stop-color="#70777d"/><stop offset="1" stop-color="#70777d" stop-opacity="0"/></radialGradient><radialGradient id="fluentColorOptions241" cx="0" cy="0" r="1" gradientTransform="matrix(4.83333 -.31248 .20044 3.1004 8.667 16.813)" gradientUnits="userSpaceOnUse"><stop offset=".549" stop-color="#70777d"/><stop offset="1" stop-color="#70777d" stop-opacity="0"/></radialGradient><radialGradient id="fluentColorOptions242" cx="0" cy="0" r="1" gradientTransform="matrix(4.66666 -.1875 .12027 2.9935 15.333 7.188)" gradientUnits="userSpaceOnUse"><stop offset=".549" stop-color="#70777d"/><stop offset="1" stop-color="#70777d" stop-opacity="0"/></radialGradient><radialGradient id="fluentColorOptions243" cx="0" cy="0" r="1" gradientTransform="matrix(4.83333 -.31248 .20044 3.1004 8.667 16.813)" gradientUnits="userSpaceOnUse"><stop offset=".549" stop-color="#70777d"/><stop offset="1" stop-color="#70777d" stop-opacity="0"/></radialGradient><linearGradient id="fluentColorOptions244" x1="23.25" x2="14.313" y1="18.6" y2="-1.892" gradientUnits="userSpaceOnUse"><stop stop-color="#8c959b"/><stop offset="1" stop-color="#a3acb5"/></linearGradient><linearGradient id="fluentColorOptions245" x1="23.25" x2="14.313" y1="18.6" y2="-1.892" gradientUnits="userSpaceOnUse"><stop stop-color="#8c959b"/><stop offset="1" stop-color="#a3acb5"/></linearGradient><linearGradient id="fluentColorOptions246" x1="6.15" x2="11.35" y1="13.5" y2="20" gradientUnits="userSpaceOnUse"><stop stop-color="#29b4fb"/><stop offset="1" stop-color="#2764e7"/></linearGradient><linearGradient id="fluentColorOptions247" x1="12.65" x2="17.85" y1="4" y2="10.5" gradientUnits="userSpaceOnUse"><stop stop-color="#29b4fb"/><stop offset="1" stop-color="#2764e7"/></linearGradient></defs></g></svg>