<svg width="24" height="24" viewBox="0 0 24 24" fill="none" xmlns="http://www.w3.org/2000/svg">
<path d="M6 3C4.89543 3 4 3.89543 4 5V19C4 20.1046 4.89543 21 6 21H18C19.1046 21 20 20.1046 20 19V5C20 3.89543 19.1046 3 18 3H6Z" fill="#0078D4"/>
<path d="M6 3C4.89543 3 4 3.89543 4 5V19C4 20.1046 4.89543 21 6 21H18C19.1046 21 20 20.1046 20 19V5C20 3.89543 19.1046 3 18 3H6Z" fill="url(#paint0_linear_calculator)"/>
<rect x="6" y="6" width="12" height="3" rx="1" fill="#E1F5FE"/>
<rect x="6" y="10" width="2" height="2" rx="0.5" fill="#FFFFFF"/>
<rect x="9" y="10" width="2" height="2" rx="0.5" fill="#FFFFFF"/>
<rect x="12" y="10" width="2" height="2" rx="0.5" fill="#FFFFFF"/>
<rect x="15" y="10" width="3" height="2" rx="0.5" fill="#FFFFFF"/>
<rect x="6" y="13" width="2" height="2" rx="0.5" fill="#FFFFFF"/>
<rect x="9" y="13" width="2" height="2" rx="0.5" fill="#FFFFFF"/>
<rect x="12" y="13" width="2" height="2" rx="0.5" fill="#FFFFFF"/>
<rect x="15" y="13" width="3" height="5" rx="0.5" fill="#FF6B35"/>
<rect x="6" y="16" width="2" height="2" rx="0.5" fill="#FFFFFF"/>
<rect x="9" y="16" width="2" height="2" rx="0.5" fill="#FFFFFF"/>
<rect x="12" y="16" width="2" height="2" rx="0.5" fill="#FFFFFF"/>
<defs>
<linearGradient id="paint0_linear_calculator" x1="12" y1="3" x2="12" y2="21" gradientUnits="userSpaceOnUse">
<stop stop-color="#0078D4"/>
<stop offset="1" stop-color="#005BA1"/>
</linearGradient>
</defs>
</svg>
