<svg width="24" height="24" viewBox="0 0 24 24" fill="none" xmlns="http://www.w3.org/2000/svg">
<path d="M4 6C4 4.89543 4.89543 4 6 4H18C19.1046 4 20 4.89543 20 6V18C20 19.1046 19.1046 20 18 20H6C4.89543 20 4 19.1046 4 18V6Z" fill="#0078D4"/>
<path d="M4 6C4 4.89543 4.89543 4 6 4H18C19.1046 4 20 4.89543 20 6V18C20 19.1046 19.1046 20 18 20H6C4.89543 20 4 19.1046 4 18V6Z" fill="url(#paint0_linear_chart)"/>
<path d="M7 16L10 13L13 15L17 8" stroke="#FFFFFF" stroke-width="2" stroke-linecap="round" stroke-linejoin="round"/>
<circle cx="7" cy="16" r="1.5" fill="#FF6B35"/>
<circle cx="10" cy="13" r="1.5" fill="#4CAF50"/>
<circle cx="13" cy="15" r="1.5" fill="#FFC107"/>
<circle cx="17" cy="8" r="1.5" fill="#F44336"/>
<defs>
<linearGradient id="paint0_linear_chart" x1="12" y1="4" x2="12" y2="20" gradientUnits="userSpaceOnUse">
<stop stop-color="#0078D4"/>
<stop offset="1" stop-color="#005BA1"/>
</linearGradient>
</defs>
</svg>
