<svg width="24" height="24" viewBox="0 0 24 24" fill="none" xmlns="http://www.w3.org/2000/svg">
<path d="M4 4H20V20H4V4Z" fill="#0078D4"/>
<path d="M4 4H20V20H4V4Z" fill="url(#paint0_linear_cube)"/>
<path d="M4 4L8 2L20 2L16 4H4Z" fill="#4CAF50"/>
<path d="M20 4L24 2V16L20 18V4Z" fill="#2196F3"/>
<path d="M8 2L8 16L4 18V4L8 2Z" fill="#FFC107"/>
<path d="M8 16L12 14L24 14L20 16L8 16Z" fill="#FF6B35"/>
<path d="M12 14L12 0L24 0L24 14L12 14Z" fill="#9C27B0"/>
<defs>
<linearGradient id="paint0_linear_cube" x1="12" y1="4" x2="12" y2="20" gradientUnits="userSpaceOnUse">
<stop stop-color="#0078D4"/>
<stop offset="1" stop-color="#005BA1"/>
</linearGradient>
</defs>
</svg>
