<svg xmlns="http://www.w3.org/2000/svg" width="1em" height="1em" viewBox="0 0 24 24"><g fill="none"><path fill="url(#fluentColorDataLine246)" d="M18.886 6.857a.75.75 0 0 1 .257 1.029l-3 5a.75.75 0 0 1-1.286-.772l3-5a.75.75 0 0 1 1.029-.257"/><path fill="url(#fluentColorDataLine240)" d="M18.886 6.857a.75.75 0 0 1 .257 1.029l-3 5a.75.75 0 0 1-1.286-.772l3-5a.75.75 0 0 1 1.029-.257"/><path fill="url(#fluentColorDataLine241)" d="M18.886 6.857a.75.75 0 0 1 .257 1.029l-3 5a.75.75 0 0 1-1.286-.772l3-5a.75.75 0 0 1 1.029-.257"/><path fill="url(#fluentColorDataLine242)" d="M18.886 6.857a.75.75 0 0 1 .257 1.029l-3 5a.75.75 0 0 1-1.286-.772l3-5a.75.75 0 0 1 1.029-.257"/><path fill="url(#fluentColorDataLine247)" d="M13.67 14.165a.75.75 0 0 1-.335 1.006l-7 3.5a.75.75 0 1 1-.67-1.342l7-3.5a.75.75 0 0 1 1.006.336"/><path fill="url(#fluentColorDataLine243)" d="M13.67 14.165a.75.75 0 0 1-.335 1.006l-7 3.5a.75.75 0 1 1-.67-1.342l7-3.5a.75.75 0 0 1 1.006.336"/><path fill="url(#fluentColorDataLine244)" d="M13.67 14.165a.75.75 0 0 1-.335 1.006l-7 3.5a.75.75 0 1 1-.67-1.342l7-3.5a.75.75 0 0 1 1.006.336"/><path fill="url(#fluentColorDataLine245)" d="M13.67 14.165a.75.75 0 0 1-.335 1.006l-7 3.5a.75.75 0 1 1-.67-1.342l7-3.5a.75.75 0 0 1 1.006.336"/><circle cx="5" cy="18" r="3" fill="url(#fluentColorDataLine248)"/><circle cx="14" cy="14" r="3" fill="url(#fluentColorDataLine249)"/><circle cx="19" cy="6" r="3" fill="url(#fluentColorDataLine24a)"/><defs><radialGradient id="fluentColorDataLine240" cx="0" cy="0" r="1" gradientTransform="matrix(5.0256 1.45453 -1.73792 6.00475 3.814 18.75)" gradientUnits="userSpaceOnUse"><stop offset=".549" stop-color="#70777d"/><stop offset="1" stop-color="#70777d" stop-opacity="0"/></radialGradient><radialGradient id="fluentColorDataLine241" cx="0" cy="0" r="1" gradientTransform="rotate(83.419 6.63 13.83)scale(4.63728 5.41306)" gradientUnits="userSpaceOnUse"><stop offset=".549" stop-color="#70777d"/><stop offset="1" stop-color="#70777d" stop-opacity="0"/></radialGradient><radialGradient id="fluentColorDataLine242" cx="0" cy="0" r="1" gradientTransform="matrix(4.67419 0 0 4.67272 13.908 13.9)" gradientUnits="userSpaceOnUse"><stop offset=".549" stop-color="#70777d"/><stop offset="1" stop-color="#70777d" stop-opacity="0"/></radialGradient><radialGradient id="fluentColorDataLine243" cx="0" cy="0" r="1" gradientTransform="matrix(5.0256 1.45453 -1.73792 6.00475 3.814 18.75)" gradientUnits="userSpaceOnUse"><stop offset=".549" stop-color="#70777d"/><stop offset="1" stop-color="#70777d" stop-opacity="0"/></radialGradient><radialGradient id="fluentColorDataLine244" cx="0" cy="0" r="1" gradientTransform="rotate(83.419 6.63 13.83)scale(4.63728 5.41306)" gradientUnits="userSpaceOnUse"><stop offset=".549" stop-color="#70777d"/><stop offset="1" stop-color="#70777d" stop-opacity="0"/></radialGradient><radialGradient id="fluentColorDataLine245" cx="0" cy="0" r="1" gradientTransform="matrix(4.67419 0 0 4.67272 13.908 13.9)" gradientUnits="userSpaceOnUse"><stop offset=".549" stop-color="#70777d"/><stop offset="1" stop-color="#70777d" stop-opacity="0"/></radialGradient><linearGradient id="fluentColorDataLine246" x1="5.25" x2="21.244" y1="6.75" y2="22.18" gradientUnits="userSpaceOnUse"><stop stop-color="#b9c0c7"/><stop offset="1" stop-color="#70777d"/></linearGradient><linearGradient id="fluentColorDataLine247" x1="5.25" x2="21.244" y1="6.75" y2="22.18" gradientUnits="userSpaceOnUse"><stop stop-color="#b9c0c7"/><stop offset="1" stop-color="#70777d"/></linearGradient><linearGradient id="fluentColorDataLine248" x1="2.75" x2="9.204" y1="15.25" y2="22.884" gradientUnits="userSpaceOnUse"><stop stop-color="#36dff1"/><stop offset="1" stop-color="#0078d4"/></linearGradient><linearGradient id="fluentColorDataLine249" x1="17" x2="7.4" y1="17" y2="7.4" gradientUnits="userSpaceOnUse"><stop stop-color="#6d37cd"/><stop offset=".641" stop-color="#ea71ef"/></linearGradient><linearGradient id="fluentColorDataLine24a" x1="21.5" x2="17.2" y1="7.9" y2="3" gradientUnits="userSpaceOnUse"><stop stop-color="#e23cb4"/><stop offset="1" stop-color="#ea71ef"/></linearGradient></defs></g></svg>