<svg xmlns="http://www.w3.org/2000/svg" width="1em" height="1em" viewBox="0 0 24 24"><g fill="none"><path fill="url(#fluentColorCalendarDataBar240)" d="M21 7.5v10.25A3.25 3.25 0 0 1 17.75 21H6.25A3.25 3.25 0 0 1 3 17.75V7.5l9-1z"/><path fill="url(#fluentColorCalendarDataBar241)" d="M21 7.5v10.25A3.25 3.25 0 0 1 17.75 21H6.25A3.25 3.25 0 0 1 3 17.75V7.5l9-1z"/><path fill="url(#fluentColorCalendarDataBar246)" fill-opacity="0.3" d="M21 7.5v10.25A3.25 3.25 0 0 1 17.75 21H6.25A3.25 3.25 0 0 1 3 17.75V7.5l9-1z"/><path fill="url(#fluentColorCalendarDataBar247)" fill-opacity="0.3" d="M21 7.5v10.25A3.25 3.25 0 0 1 17.75 21H6.25A3.25 3.25 0 0 1 3 17.75V7.5l9-1z"/><path fill="url(#fluentColorCalendarDataBar248)" fill-opacity="0.3" d="M21 7.5v10.25A3.25 3.25 0 0 1 17.75 21H6.25A3.25 3.25 0 0 1 3 17.75V7.5l9-1z"/><path fill="url(#fluentColorCalendarDataBar242)" d="M17.75 3A3.25 3.25 0 0 1 21 6.25V8H3V6.25A3.25 3.25 0 0 1 6.25 3z"/><path fill="url(#fluentColorCalendarDataBar243)" d="M20 15.5a1.5 1.5 0 0 1 3 0v6a1.5 1.5 0 0 1-3 0z"/><path fill="url(#fluentColorCalendarDataBar244)" d="M17.5 12a1.5 1.5 0 0 0-1.5 1.5v8a1.5 1.5 0 0 0 3 0v-8a1.5 1.5 0 0 0-1.5-1.5"/><path fill="url(#fluentColorCalendarDataBar245)" d="M13.5 16a1.5 1.5 0 0 0-1.5 1.5v4a1.5 1.5 0 0 0 3 0v-4a1.5 1.5 0 0 0-1.5-1.5"/><defs><linearGradient id="fluentColorCalendarDataBar240" x1="9.429" x2="14.137" y1="6.5" y2="20.932" gradientUnits="userSpaceOnUse"><stop stop-color="#b3e0ff"/><stop offset="1" stop-color="#8cd0ff"/></linearGradient><linearGradient id="fluentColorCalendarDataBar241" x1="13.929" x2="16.625" y1="12.432" y2="24.267" gradientUnits="userSpaceOnUse"><stop stop-color="#dcf8ff" stop-opacity="0"/><stop offset="1" stop-color="#ff6ce8" stop-opacity="0.7"/></linearGradient><linearGradient id="fluentColorCalendarDataBar242" x1="3.723" x2="5.356" y1="3" y2="11.537" gradientUnits="userSpaceOnUse"><stop stop-color="#0094f0"/><stop offset="1" stop-color="#2764e7"/></linearGradient><linearGradient id="fluentColorCalendarDataBar243" x1="22.75" x2="21.562" y1="21.35" y2="13.841" gradientUnits="userSpaceOnUse"><stop stop-color="#d7257d"/><stop offset="1" stop-color="#e656eb"/></linearGradient><linearGradient id="fluentColorCalendarDataBar244" x1="19.75" x2="18.104" y1="24.222" y2="12" gradientUnits="userSpaceOnUse"><stop stop-color="#5b2ab5"/><stop offset="1" stop-color="#dd3ce2"/></linearGradient><linearGradient id="fluentColorCalendarDataBar245" x1="12.375" x2="18.534" y1="16.292" y2="19.414" gradientUnits="userSpaceOnUse"><stop stop-color="#16bbda"/><stop offset="1" stop-color="#2052cb"/></linearGradient><radialGradient id="fluentColorCalendarDataBar246" cx="0" cy="0" r="1" gradientTransform="matrix(0 5.5 -2.5625 0 13.5 21)" gradientUnits="userSpaceOnUse"><stop offset=".535" stop-color="#4a43cb"/><stop offset="1" stop-color="#4a43cb" stop-opacity="0"/></radialGradient><radialGradient id="fluentColorCalendarDataBar247" cx="0" cy="0" r="1" gradientTransform="matrix(0 8 -2.58848 0 17.5 19.5)" gradientUnits="userSpaceOnUse"><stop offset=".535" stop-color="#4a43cb"/><stop offset="1" stop-color="#4a43cb" stop-opacity="0"/></radialGradient><radialGradient id="fluentColorCalendarDataBar248" cx="0" cy="0" r="1" gradientTransform="matrix(0 5.5 -2.5 0 21.5 20)" gradientUnits="userSpaceOnUse"><stop offset=".535" stop-color="#4a43cb"/><stop offset="1" stop-color="#4a43cb" stop-opacity="0"/></radialGradient></defs></g></svg>